<?xml version="1.0" encoding="UTF-8"?>
<svg width="512px" height="512px" viewBox="0 0 512 512" version="1.1" xmlns="http://www.w3.org/2000/svg" xmlns:xlink="http://www.w3.org/1999/xlink">
    <!-- Generator: Sketch 43.1 (39012) - http://www.bohemiancoding.com/sketch -->
    <title>Group 3</title>
    <desc>Created with Sketch.</desc>
    <defs>
        <filter x="-24.3%" y="-18.2%" width="148.3%" height="137.1%" filterUnits="objectBoundingBox" id="filter-1">
            <feOffset dx="0" dy="2" in="SourceAlpha" result="shadowOffsetOuter1"></feOffset>
            <feGaussianBlur stdDeviation="25.5" in="shadowOffsetOuter1" result="shadowBlurOuter1"></feGaussianBlur>
            <feColorMatrix values="0 0 0 0 0   0 0 0 0 0   0 0 0 0 0  0 0 0 0.5 0" type="matrix" in="shadowBlurOuter1" result="shadowMatrixOuter1"></feColorMatrix>
            <feMerge>
                <feMergeNode in="shadowMatrixOuter1"></feMergeNode>
                <feMergeNode in="SourceGraphic"></feMergeNode>
            </feMerge>
        </filter>
        <linearGradient x1="50%" y1="0%" x2="50%" y2="62.2842592%" id="linearGradient-2">
            <stop stop-color="#FFF0D4" offset="0%"></stop>
            <stop stop-color="#F4C7A5" offset="100%"></stop>
        </linearGradient>
        <path d="M146.636682,385.217969 C175.265589,382.394239 193.02192,354.726747 193.02192,354.726747 C193.02192,354.726747 185.860299,350.000185 180.475777,348.837343 C176.089058,348.045839 167.373238,348.633485 167.373238,348.633485 C167.373238,348.633485 166.608737,331.714816 166.743014,325.506075 C154.058444,325.256075 161.50207,327.06952 146.152291,327.06952 C131.237097,327.06952 121.785608,323.175 121.785608,323.175 L122.212349,348.837343 C122.212349,348.837343 113.605584,349.167827 109.460396,350.518251 C100.538033,353.424989 94.5463338,355.640321 94.5463338,355.640321 C94.5463338,355.640321 95.7891302,362.24112 102.978729,368.441861 C112.582117,376.724398 130.371206,385.217969 146.636682,385.217969 Z" id="path-3"></path>
        <filter x="-7.1%" y="-8.1%" width="114.2%" height="122.6%" filterUnits="objectBoundingBox" id="filter-4">
            <feOffset dx="0" dy="2" in="SourceAlpha" result="shadowOffsetOuter1"></feOffset>
            <feGaussianBlur stdDeviation="2" in="shadowOffsetOuter1" result="shadowBlurOuter1"></feGaussianBlur>
            <feColorMatrix values="0 0 0 0 0   0 0 0 0 0   0 0 0 0 0  0 0 0 0.5 0" type="matrix" in="shadowBlurOuter1"></feColorMatrix>
        </filter>
        <linearGradient x1="50%" y1="60.6442524%" x2="50%" y2="100%" id="linearGradient-5">
            <stop stop-color="#FFF1D4" offset="0%"></stop>
            <stop stop-color="#EFB590" offset="100%"></stop>
        </linearGradient>
        <radialGradient cx="50%" cy="24.953338%" fx="50%" fy="24.953338%" r="44.7303949%" gradientTransform="translate(0.500000,0.249533),scale(0.668190,1.000000),rotate(82.657145),scale(1.000000,1.025461),translate(-0.500000,-0.249533)" id="radialGradient-6">
            <stop stop-color="#000000" offset="0%"></stop>
            <stop stop-color="#000000" offset="100%"></stop>
        </radialGradient>
        <radialGradient cx="50%" cy="24.953338%" fx="50%" fy="24.953338%" r="44.7303949%" gradientTransform="translate(0.500000,0.249533),scale(0.668190,1.000000),rotate(82.657145),scale(1.000000,1.025461),translate(-0.500000,-0.249533)" id="radialGradient-7">
            <stop stop-color="#FFFFFF" offset="0%"></stop>
            <stop stop-color="#000000" offset="100%"></stop>
        </radialGradient>
        <circle id="path-8" cx="40" cy="40" r="40"></circle>
        <filter x="-8.8%" y="-6.2%" width="117.5%" height="117.5%" filterUnits="objectBoundingBox" id="filter-9">
            <feOffset dx="0" dy="2" in="SourceAlpha" result="shadowOffsetOuter1"></feOffset>
            <feGaussianBlur stdDeviation="2" in="shadowOffsetOuter1" result="shadowBlurOuter1"></feGaussianBlur>
            <feColorMatrix values="0 0 0 0 0   0 0 0 0 0   0 0 0 0 0  0 0 0 0.5 0" type="matrix" in="shadowBlurOuter1"></feColorMatrix>
        </filter>
        <circle id="path-10" cx="40.5" cy="40.5" r="20.5"></circle>
        <filter x="-17.1%" y="-12.2%" width="134.1%" height="134.1%" filterUnits="objectBoundingBox" id="filter-11">
            <feOffset dx="0" dy="2" in="SourceAlpha" result="shadowOffsetOuter1"></feOffset>
            <feGaussianBlur stdDeviation="2" in="shadowOffsetOuter1" result="shadowBlurOuter1"></feGaussianBlur>
            <feColorMatrix values="0 0 0 0 0   0 0 0 0 0   0 0 0 0 0  0 0 0 0.5 0" type="matrix" in="shadowBlurOuter1"></feColorMatrix>
        </filter>
        <circle id="path-12" cx="40" cy="40" r="40"></circle>
        <filter x="-8.8%" y="-6.2%" width="117.5%" height="117.5%" filterUnits="objectBoundingBox" id="filter-13">
            <feOffset dx="0" dy="2" in="SourceAlpha" result="shadowOffsetOuter1"></feOffset>
            <feGaussianBlur stdDeviation="2" in="shadowOffsetOuter1" result="shadowBlurOuter1"></feGaussianBlur>
            <feColorMatrix values="0 0 0 0 0   0 0 0 0 0   0 0 0 0 0  0 0 0 0.5 0" type="matrix" in="shadowBlurOuter1"></feColorMatrix>
        </filter>
        <circle id="path-14" cx="40.5" cy="40.5" r="20.5"></circle>
        <filter x="-17.1%" y="-12.2%" width="134.1%" height="134.1%" filterUnits="objectBoundingBox" id="filter-15">
            <feOffset dx="0" dy="2" in="SourceAlpha" result="shadowOffsetOuter1"></feOffset>
            <feGaussianBlur stdDeviation="2" in="shadowOffsetOuter1" result="shadowBlurOuter1"></feGaussianBlur>
            <feColorMatrix values="0 0 0 0 0   0 0 0 0 0   0 0 0 0 0  0 0 0 0.5 0" type="matrix" in="shadowBlurOuter1"></feColorMatrix>
        </filter>
    </defs>
    <g id="Page-1" stroke="none" stroke-width="1" fill="none" fill-rule="evenodd">
        <g id="512---Play-Store">
            <g id="Group-3">
                <rect id="Rectangle" fill="#F0F0F0" x="0" y="0" width="512" height="512"></rect>
                <g id="Group-2" filter="url(#filter-1)" transform="translate(110.000000, 92.000000)">
                    <path d="M27.8459427,282.966837 C27.8459427,282.966837 33.4592406,295.47284 37.4025833,298.358438 C41.3459261,301.244037 51.0393021,302.286661 51.0393021,302.286661 L63.6393997,301.150919 C63.6393997,301.150919 41.5786607,310.468294 30.7834427,311.443399 C19.9882247,312.418505 2.54210798,295.753472 2.54210798,295.753472 L27.8459427,282.966837 Z" id="Path-5" fill="#000000" transform="translate(33.090754, 297.225709) scale(-1, 1) rotate(-14.000000) translate(-33.090754, -297.225709) "></path>
                    <path d="M253.845943,282.966837 C253.845943,282.966837 259.459241,295.47284 263.402583,298.358438 C267.345926,301.244037 277.039302,302.286661 277.039302,302.286661 L289.6394,301.150919 C289.6394,301.150919 267.578661,310.468294 256.783443,311.443399 C245.988225,312.418505 228.542108,295.753472 228.542108,295.753472 L253.845943,282.966837 Z" id="Path-5" fill="#000000" transform="translate(259.090754, 297.225709) rotate(-14.000000) translate(-259.090754, -297.225709) "></path>
                    <g id="Group">
                        <g id="Oval-2" transform="translate(143.784127, 354.196485) rotate(1.000000) translate(-143.784127, -354.196485) ">
                            <use fill="black" fill-opacity="1" filter="url(#filter-4)" xlink:href="#path-3"></use>
                            <use fill="url(#linearGradient-2)" fill-rule="evenodd" xlink:href="#path-3"></use>
                        </g>
                        <g id="连头发">
                            <path d="M156.214844,331.265625 C180.078125,325.730469 214.828125,325.210938 267.0625,266.453125 C288.003906,233.816406 301.640625,187.314236 301.640625,155.871094 C301.640625,135.147885 294.265337,106.289113 287.752284,89.1988845 C284.273694,80.0710758 281.60545,74.0986484 281.60545,74.0986484 C281.60545,74.0986484 274.701172,59.3027344 260.039062,46.5234375 C233.584495,27.9090105 187.311226,11 149.8125,11 C111.299813,11 79.5413618,12.7681402 51.6015625,35.046875 C14.0324667,65.0038519 -2.84217094e-14,132.688739 -2.84217094e-14,184.474609 C4.45117187,247.841797 49.125,300.84375 49.9921875,302.003906 C104.367188,343.511719 147.8125,331.265625 156.214844,331.265625 Z" id="face" fill="url(#linearGradient-5)"></path>
                            <g id="头发">
                                <path d="M147.075722,130.792476 C191.653847,127.874507 249.729637,108.521484 249.729637,108.521484 C249.729637,108.521484 244.884903,145.225036 254.628074,159.769531 C257.121513,163.491708 286.467597,179.838126 285.114403,190.392578 C284.717796,193.485971 283.764793,200.892578 275.796043,201.755859 C263.602684,204.794922 258.942528,191.984375 258.942528,191.984375 C258.942528,191.984375 252.225731,215.617188 287.815574,211.417969 C300.190574,207.367188 305.417137,165.655603 305.417137,151 C305.417137,136.344397 301.442145,89.0825242 295.721824,69.1308594 C298.970848,63.3095703 299.842806,63.4778613 306.693504,62.2998047 C315.853049,60.7247151 320.946714,84.1803107 319.956199,82.5917969 C319.489008,81.8425504 323.455162,71.0926214 321.834129,62.5195312 C320.705086,56.5484073 315.01512,51.8795521 310.995262,51.3476562 C301.125322,50.041695 288.06434,58.1375073 287.108543,56.9414062 C292.218895,47.4794922 280.480613,23.7216797 280.480613,23.7216797 C280.480613,23.7216797 279.793113,33.1035156 280.055809,40.6210937 C278.930809,46.8505859 272.859831,40.3168261 271.768942,39.3720931 C242.060225,13.6437218 196.683357,-1.42108547e-14 155.583153,-1.42108547e-14 C120.060815,-1.42108547e-14 83.2310663,5.96222219 57.3526838,26.3808594 C22.0746206,54.21606 0.417136888,102.575055 0.417136888,151 C0.417136888,170.417368 -2.03794124,209.677734 4.96401189,211.519531 C6.38981672,211.72133 12.7726056,218.384766 24.5655744,213.556641 C33.1144025,211.832031 32.2452619,193.361328 32.2452619,193.361328 C32.2452619,193.361328 22.3234524,202.583419 17.4073713,199.498047 C13.0558743,196.767013 12.8663556,190.083984 15.0343244,187.240234 C15.4780424,182.968811 17.7412396,179.589093 19.1827619,177.222656 C26.6984327,164.884755 40.4248697,159.443828 49.7862775,153.458984 C74.4430767,137.69564 111.493941,130.792476 147.075722,130.792476 Z" fill="url(#radialGradient-6)"></path>
                                <path d="M147.075722,130.792476 C191.653847,127.874507 249.729637,108.521484 249.729637,108.521484 C249.729637,108.521484 244.884903,145.225036 254.628074,159.769531 C257.121513,163.491708 286.467597,179.838126 285.114403,190.392578 C284.717796,193.485971 283.764793,200.892578 275.796043,201.755859 C263.602684,204.794922 258.942528,191.984375 258.942528,191.984375 C258.942528,191.984375 252.225731,215.617187 287.815574,211.417969 C300.190574,207.367188 305.417137,165.655603 305.417137,151 C305.417137,136.344397 301.442145,89.0825242 295.721824,69.1308594 C298.970848,63.3095703 299.842806,63.4778613 306.693504,62.2998047 C315.853049,60.7247151 320.946714,84.1803107 319.956199,82.5917969 C319.489008,81.8425504 323.455162,71.0926214 321.834129,62.5195312 C320.705086,56.5484073 315.01512,51.8795521 310.995262,51.3476562 C301.125322,50.041695 288.06434,58.1375073 287.108543,56.9414062 C292.218895,47.4794922 280.480613,23.7216797 280.480613,23.7216797 C280.480613,23.7216797 279.793113,33.1035156 280.055809,40.6210937 C278.930809,46.8505859 272.859831,40.3168261 271.768942,39.3720931 C242.060225,13.6437218 196.683357,-1.42108547e-14 155.583153,-1.42108547e-14 C120.060815,-1.42108547e-14 83.2310663,5.96222219 57.3526838,26.3808594 C22.0746206,54.21606 0.417136888,102.575055 0.417136888,151 C0.417136888,170.417368 -2.03794124,209.677734 4.96401189,211.519531 C6.38981672,211.72133 12.7726056,218.384766 24.5655744,213.556641 C33.1144025,211.832031 32.2452619,193.361328 32.2452619,193.361328 C32.2452619,193.361328 22.3234524,202.583419 17.4073713,199.498047 C13.0558743,196.767013 12.8663556,190.083984 15.0343244,187.240234 C15.4780424,182.968811 17.7412396,179.589093 19.1827619,177.222656 C26.6984327,164.884755 40.4248697,159.443828 49.7862775,153.458984 C74.4430767,137.69564 111.493941,130.792476 147.075722,130.792476 Z" fill-opacity="0.629999995" fill="url(#radialGradient-7)"></path>
                            </g>
                        </g>
                        <g id="衣服" transform="translate(36.000000, 354.000000)">
                            <path d="M109.714844,65.3507765 C109.714844,65.3507765 125.378906,66.546089 219.875,65.3507765 C194.520452,24.1959284 184.476638,9.1983838 156.660517,0.0791645682 C143.125977,12.3693312 140.661133,19.9132765 104.811523,23.3488234 C67.4169922,24.3331984 58.6259273,0 58.6259273,0 C58.6259273,0 38.0404204,12.0830481 23.2080078,27.0763625 C11.0563156,39.359876 4.76074475,53.5021885 0,65.3507765 C62.9453125,64.7765578 109.714844,65.3507765 109.714844,65.3507765 Z" id="Oval" fill="#C43332"></path>
                            <path d="M58.5838623,0.0480957031 C58.5838623,0.0480957031 67.578125,23.0947266 104.208984,23.0947266 C129.330662,23.0947266 144.245782,11.8606129 151.389587,5.06268311 C154.662432,1.94829693 156.620117,0.09375 156.620117,0.09375 C156.620117,0.09375 159.776062,1.05578613 162.724548,2.24963379 C165.673035,3.44348145 168.241394,4.73571777 168.241394,4.73571777 C168.241394,4.73571777 138.199219,36.3271484 105.799805,36.3271484 C73.4003906,36.3271484 46.7210388,7.74789429 46.7210388,7.74789429 C46.7210388,7.74789429 49.6542969,5.72259521 52.8430481,3.57632446 C55.6715088,1.7567749 58.5838623,0.0480957031 58.5838623,0.0480957031 Z" id="Path-2" fill="#902625"></path>
                            <path d="M46.8156738,7.73913574 C46.8156738,7.73913574 26.2880859,18.8244629 12.0148926,41.2241211 C2.80444336,57.029541 0.182617188,65.2470703 0.182617188,65.2470703 L31.6582031,64.8261719 L38.6650391,37.9033203 L52.5725098,13.2182617 L46.8156738,7.73913574 Z" id="Path-3" fill-opacity="0.860000014" fill="#902625"></path>
                            <path d="M168.231201,4.70324707 C168.231201,4.70324707 173.213379,6.69714355 180.716431,12.5855713 C188.219482,18.473999 194.251953,26.2929688 194.251953,26.2929688 L219.822266,64.9912109 L182.229492,65 L161.015625,11.4326172 L168.231201,4.70324707 Z" id="Path-4" fill="#902625"></path>
                        </g>
                        <g id="眼睛" transform="translate(44.000000, 171.000000)">
                            <g id="Oval-3">
                                <use fill="black" fill-opacity="1" filter="url(#filter-9)" xlink:href="#path-8"></use>
                                <use fill="#FFFFFF" fill-rule="evenodd" xlink:href="#path-8"></use>
                            </g>
                            <g id="Oval-3">
                                <use fill="black" fill-opacity="1" filter="url(#filter-11)" xlink:href="#path-10"></use>
                                <use fill="#000000" fill-rule="evenodd" xlink:href="#path-10"></use>
                            </g>
                        </g>
                        <g id="眼睛" transform="translate(166.000000, 165.000000)">
                            <g id="Oval-3">
                                <use fill="black" fill-opacity="1" filter="url(#filter-13)" xlink:href="#path-12"></use>
                                <use fill="#FFFFFF" fill-rule="evenodd" xlink:href="#path-12"></use>
                            </g>
                            <g id="Oval-3">
                                <use fill="black" fill-opacity="1" filter="url(#filter-15)" xlink:href="#path-14"></use>
                                <use fill="#000000" fill-rule="evenodd" xlink:href="#path-14"></use>
                            </g>
                        </g>
                    </g>
                </g>
            </g>
        </g>
    </g>
</svg>