<?xml version="1.0" encoding="UTF-8"?>
<svg width="92px" height="88px" viewBox="0 0 92 88" version="1.1" xmlns="http://www.w3.org/2000/svg" xmlns:xlink="http://www.w3.org/1999/xlink">
    <!-- Generator: Sketch 43.1 (39012) - http://www.bohemiancoding.com/sketch -->
    <title>收藏-2</title>
    <desc>Created with Sketch.</desc>
    <defs></defs>
    <g id="Page-1" stroke="none" stroke-width="1" fill="none" fill-rule="evenodd">
        <g id="收藏-2" fill-rule="nonzero" fill="#FFFFFF">
            <path d="M28.886392,65.2275683 C27.9101124,65.2275683 27.0716604,64.506632 26.9453184,63.5110533 C26.0034956,55.7752926 24.7975031,51.0262679 20.490387,44.9383615 C18.5033708,42.3292588 17.3203496,40.1778934 17.9750312,38.1981795 C18.560799,36.390117 20.6052434,35.0512354 24.0394507,34.2158648 C31.137578,31.8928479 36.3865169,28.1622887 40.0848939,22.7953186 C40.693633,21.9141743 41.9111111,21.6853056 42.7955056,22.2918075 C43.6799001,22.8983095 43.909613,24.1113134 43.3008739,24.9924577 C39.0856429,31.103251 33.1590512,35.3373212 25.1765293,37.9349805 L25.1076155,37.9578674 L25.0387016,37.9807542 C22.615231,38.5643693 21.8801498,39.216645 21.7078652,39.3997399 C21.7423221,39.6514954 21.9950062,40.4754226 23.6259675,42.6153446 L23.6604245,42.6725618 C28.4384519,49.4127438 29.8167291,54.8254876 30.8274657,63.0418726 C30.9538077,64.1061118 30.1957553,65.0788036 29.1275905,65.2046814 C29.047191,65.2275683 28.9667915,65.2275683 28.886392,65.2275683 L28.886392,65.2275683 Z" id="Shape"></path>
            <path d="M46.0344569,5.80182055 C46.1378277,5.82470741 47.7228464,6.25955787 50.37603,10.5737321 C57.3363296,21.879844 67.4092385,29.1807542 80.3305868,32.293368 C85.4302122,33.5178153 86.2227216,34.936801 86.2227216,34.9482445 C86.2227216,34.9596879 86.4294632,36.573212 83.0182272,40.5669701 C74.403995,50.660078 70.5563046,62.4811443 71.5785268,75.6983095 C71.9805243,80.8020806 70.9238452,82.0723017 70.866417,82.1295189 C70.8089888,82.1638492 70.544819,82.2439532 70.027965,82.2439532 C69.1091136,82.2439532 67.4092385,81.9921977 64.5378277,80.8135241 C58.4274657,78.2959688 52.1907615,77.0143043 46.0229713,77.0143043 C39.855181,77.0143043 33.6184769,78.2959688 27.5081149,80.8135241 C24.6481898,81.9921977 22.9483146,82.2439532 22.0179775,82.2439532 C21.5011236,82.2439532 21.2369538,82.1638492 21.1795256,82.1295189 C21.1220974,82.0723017 20.0769039,80.8135241 20.4674157,75.6983095 C21.489638,62.4811443 17.6419476,50.660078 9.02771536,40.5669701 C5.6164794,36.573212 5.81173533,34.9596879 5.81173533,34.9482445 C5.81173533,34.936801 6.60424469,33.5178153 11.7038702,32.293368 C24.6252185,29.1807542 34.6981273,21.879844 41.658427,10.5737321 C44.3460674,6.25955787 45.9310861,5.82470741 46.0344569,5.80182055 L46.0344569,5.80182055 Z M46.0344569,0.0801040312 C42.9563046,0.0801040312 39.8781523,2.58621586 36.7885144,7.5869961 C30.6322097,17.6 21.8227216,23.9854356 10.3830212,26.7318596 C-1.05667915,29.4897269 -2.96329588,35.3373212 4.67465668,44.2860858 C12.3126092,53.223407 15.666417,63.556827 14.7590512,75.2749025 C14.1043695,83.7430429 16.5278402,87.9771131 22.0294632,87.9771131 C24.1428215,87.9771131 26.6926342,87.3591678 29.7133583,86.1118336 C35.1575531,83.8689207 40.5902622,82.7474642 46.0344569,82.7474642 C51.4786517,82.7474642 56.9113608,83.8689207 62.3555556,86.1118336 C65.364794,87.3477243 67.9260924,87.9771131 70.0394507,87.9771131 C75.5525593,87.9771131 77.97603,83.7430429 77.3098627,75.2749025 C76.4024969,63.556827 79.7563046,53.2348505 87.3942572,44.2860858 C95.0322097,35.3487646 93.125593,29.4897269 81.6858926,26.743303 C70.2461923,23.9854356 61.4367041,17.6 55.2803995,7.59843953 C52.1907615,2.58621586 49.1126092,0.0801040312 46.0344569,0.0801040312 L46.0344569,0.0801040312 Z" id="Shape"></path>
        </g>
    </g>
</svg>