<?xml version="1.0" encoding="UTF-8"?>
<svg width="30px" height="24px" viewBox="0 0 30 24" version="1.1" xmlns="http://www.w3.org/2000/svg" xmlns:xlink="http://www.w3.org/1999/xlink">
    <!-- Generator: Sketch 43.1 (39012) - http://www.bohemiancoding.com/sketch -->
    <title>Shape</title>
    <desc>Created with Sketch.</desc>
    <defs></defs>
    <g id="Page-1" stroke="none" stroke-width="1" fill="none" fill-rule="evenodd">
        <g id="tencent-wechat" fill-rule="nonzero" fill="#FFFFFF">
            <path d="M26.2694595,21.3608108 L27.0681081,23.9638138 L24.1564865,22.3996997 C23.0943243,22.6606607 22.0281081,22.9207958 20.9716216,22.9207958 C15.9210811,22.9207958 11.9440541,19.5357357 11.9440541,15.3677928 C11.9440541,11.2048048 15.9210811,7.81148649 20.9716216,7.81148649 C25.7408108,7.81148649 29.987027,11.2048048 29.987027,15.3677928 C29.987027,17.7147898 28.3994595,19.7933934 26.2694595,21.3608108 Z M18.0454054,11.9819069 C17.5167568,11.9819069 16.9840541,12.5046547 16.9840541,13.0224474 C16.9840541,13.5493243 17.5167568,14.0646396 18.0454054,14.0646396 C18.8481081,14.0646396 19.3727027,13.5493243 19.3727027,13.0224474 C19.3727027,12.5046547 18.8481081,11.9819069 18.0454054,11.9819069 Z M23.8832432,11.9819069 C23.3586486,11.9819069 22.8283784,12.5046547 22.8283784,13.0224474 C22.8283784,13.5493243 23.3586486,14.0646396 23.8832432,14.0646396 C24.6786486,14.0646396 25.2113514,13.5493243 25.2113514,13.0224474 C25.2113514,12.5046547 24.6786486,11.9819069 23.8832432,11.9819069 Z M11.2767568,15.4924925 C11.2767568,16.2481231 11.3967568,16.9773273 11.6043243,17.6734985 C11.2767568,17.6990991 10.9467568,17.7147898 10.6135135,17.7147898 C9.28864865,17.7147898 8.22324324,17.4496997 6.89513514,17.1928679 L3.18567568,19.0171171 L4.24702703,15.8864114 C1.58918919,14.0646396 0.000810810811,11.715991 0.000810810811,8.85780781 C0.000810810811,3.9045045 4.77891892,0.0033033033 10.6135135,0.0033033033 C15.8327027,0.0033033033 20.4040541,3.11996997 21.3227027,7.31351351 C20.9845946,7.27717718 20.6440541,7.25322823 20.3002703,7.25322823 C15.2578378,7.25322823 11.2767568,10.9438438 11.2767568,15.4924925 Z M7.16513514,4.43055556 C6.36972973,4.43055556 5.56702703,4.94587087 5.56702703,5.72957958 C5.56702703,6.50998498 6.36972973,7.03273273 7.16513514,7.03273273 C7.96135135,7.03273273 8.49,6.50998498 8.49,5.72957958 C8.49,4.94587087 7.96135135,4.43055556 7.16513514,4.43055556 Z M14.592973,4.43055556 C13.7975676,4.43055556 13.0005405,4.94587087 13.0005405,5.72957958 C13.0005405,6.50998498 13.7975676,7.03273273 14.592973,7.03273273 C15.3924324,7.03273273 15.9210811,6.50998498 15.9210811,5.72957958 C15.9210811,4.94587087 15.3924324,4.43055556 14.592973,4.43055556 Z" id="Shape"></path>
        </g>
    </g>
</svg>